<svg width="41" height="48" viewBox="0 0 41 48" fill="none" xmlns="http://www.w3.org/2000/svg">
<path fill-rule="evenodd" clip-rule="evenodd" d="M24.831 7.45836C23.4348 7.15809 21.9859 7 20.5 7C9.17816 7 0 16.1782 0 27.5C0 38.8218 9.17816 48 20.5 48C31.8218 48 41 38.8218 41 27.5C41 27.4036 40.9993 27.3074 40.998 27.2113H32.9967C32.9989 27.3072 33 27.4035 33 27.5C33 34.4036 27.4036 40 20.5 40C13.5964 40 8 34.4036 8 27.5C8 20.5964 13.5964 15 20.5 15C22.0226 15 23.4816 15.2722 24.831 15.7707V7.45836Z" fill="#a09789"/>
<path d="M35 11.5L21.5 21.4593L21.5 1.54071L35 11.5Z" fill="#a09789"/>
</svg>
